<?xml version="1.0" encoding="UTF-8"?>
<svg width="637px" height="226px" viewBox="0 0 637 226" version="1.1" xmlns="http://www.w3.org/2000/svg" xmlns:xlink="http://www.w3.org/1999/xlink">
    <!-- Generator: Sketch 60 (88103) - https://sketch.com -->
    <title>icon-large</title>
    <desc>Created with Sketch.</desc>
    <g id="Skeumorph" stroke="none" stroke-width="1" fill="none" fill-rule="evenodd">
        <g id="animation-copy" transform="translate(3.000000, 3.000000)">
            <g id="Group-3-Copy-13" transform="translate(218.033006, 31.528662)" stroke-width="6">
                <path d="M78.0685706,101.45718 C92.7194815,87.3756777 88.8023359,73.1501478 83.7984432,61.9769044 C77.86633,48.7310278 65.9980858,41.6184064 50.9655153,36.598017" id="Path-4-Copy-13" stroke="#7B00B8" fill-rule="nonzero" transform="translate(69.642734, 69.027599) rotate(-180.000000) translate(-69.642734, -69.027599) "></path>
                <path d="M28.5132633,120.9584 C37.3358172,126.693496 45.7520878,129.925761 52.8354291,132.203611 C62.3850343,135.274558 71.9344962,136.810008 81.4841013,136.810008 C92.1118876,136.810008 99.9670902,135.236171 105.049945,132.088451 C105.441772,131.845799 105.818496,131.596989 106.180117,131.34202" id="Path" stroke="#00A5FF" fill-rule="nonzero"></path>
                <path d="M106.850535,130.849008 C110.732987,127.869676 112.674188,124.098706 112.674188,119.536017 C112.674188,115.697333 111.172458,112.511274 108.168953,109.977742 C105.165448,107.444211 101.314859,105.409739 96.6170692,103.874265 C91.9192796,102.338792 85.565807,100.649796 77.5564607,98.8072281 C65.2343896,95.8898283 55.1458452,92.9724724 47.2905248,90.0550727 C39.4352045,87.1376729 32.6966729,82.4545489 27.074728,76.0055601" id="Path" stroke="#4A00D8" fill-rule="nonzero"></path>
                <path d="M133.698464,118.559531 C123.98449,114.25224 96.1872076,99.0468277 99.7256427,72.1659429" id="Path" stroke="#543EFF" fill-rule="nonzero" transform="translate(116.557444, 95.362737) rotate(-180.000000) translate(-116.557444, -95.362737) "></path>
                <path d="M69.7797788,95.0334644 C59.3487534,90.4082248 26.4555484,74.7423083 38.358276,40.0895701" id="Path" stroke="#7B00B8"></path>
                <path d="M37.237199,64.3201927 C36.1408709,60.6772996 35.6112579,56.6745272 35.8587685,52.2870171" id="Shape" stroke="#4A00D8"></path>
                <path d="M78.0548102,98.5997461 C67.4183324,95.0334644 61.2612091,91.5453358 55.838919,87.5996171 C51.6626885,84.5606372 46.7600722,80.5030405 43.2256487,75.8666356" id="Path-Copy-32" stroke="#4A00D8"></path>
                <path d="M81.4841013,136.810008 C88.0629111,136.810008 93.5793071,136.206937 98.0333451,135.000783" id="Shape" stroke="#543EFF" fill-rule="nonzero"></path>
                <path d="M22.9780752,70.0157762 C20.0872498,64.5191344 18.6418527,57.9171519 18.6418527,50.2097336 C18.6418527,40.843345 21.1832417,32.359981 26.2660961,24.759387 C31.3489504,17.158793 39.0116235,11.1321497 49.2543451,6.67927649 C57.7987316,2.96472956 67.9239326,0.799526736 79.6301659,0.183629242" id="Path" stroke="#FC00CD" fill-rule="nonzero"></path>
                <path d="M21.2066537,34.80327 C22.4448277,31.2995772 24.1313066,27.9516224 26.2660961,24.759387 C27.4370452,23.0084202 28.744909,21.3409853 30.1896903,19.7570799" id="Path-Copy-36" stroke="#7B00B8" fill-rule="nonzero"></path>
                <path d="M22.9780752,70.0157762 C20.0872498,64.5191344 18.6418527,57.9171519 18.6418527,50.2097336" id="Path-Copy-35" stroke="#7B00B8" fill-rule="nonzero"></path>
                <path d="M86.7979679,0 C97.1177025,0 107.897449,1.34679777 117.755106,3.80355543 C127.612763,6.26031309 142.438081,12.0685398 149.871254,16.318546" id="Path" stroke="#FC00CD" fill-rule="nonzero"></path>
                <path d="M119.810282,36.598017 C112.908535,33.5120191 102.212906,31.1137074 93.1033371,30.2696924" id="Path" stroke="#FC00CD" fill-rule="nonzero"></path>
                <path d="M86.5669302,29.9415843 C76.0931697,29.9415843 68.3534849,31.6305798 63.3476435,35.0086216 C58.3418021,38.3866634 55.838919,42.8394698 55.838919,48.3671746 C55.838919,53.8948793 58.7268611,58.0022094 64.5028319,60.6892881 C70.2788028,63.3763668 79.0966526,66.0250189 90.9566461,68.6353239 C103.278717,71.5527236 113.367262,74.4700796 121.222582,77.3874793 C127.491696,79.7157755 133.049506,83.119798 137.896114,87.5996171" id="Path" stroke="#7B00B8" fill-rule="nonzero"></path>
                <path d="M141.438379,91.2066721 C147.060324,97.5021136 149.871254,106.023864 149.871254,116.772179 C149.871254,125.98502 147.291359,134.391611 142.131492,141.992205 C136.971625,149.592799 129.23194,155.619443 118.912205,160.072316" id="Path" stroke="#00A5FF" fill-rule="nonzero"></path>
                <path d="M141.438379,91.2066721 C147.060324,97.5021136 149.871254,106.023864 149.871254,116.772179" id="Path-Copy-33" stroke="#543EFF" fill-rule="nonzero"></path>
                <path d="M113.501528,162.134979 C104.295736,165.213098 93.5463196,166.752876 81.2530636,166.752876 C70.5565574,166.752876 62.0259356,166.274012 50.9690332,163.482071" id="Path" stroke="#00A5FF" fill-rule="nonzero"></path>
                <path d="M44.1715162,161.569395 C29.5644466,157.069939 15.0427964,149.337617 0,138.481165" id="Path" stroke="#00A5FF" fill-rule="nonzero"></path>
                <path d="M106.000592,131.451191 C125.474499,118.988542 117.187453,98.8424935 112.434217,90.3780603 C107.680981,81.9136271 97.1456594,70.2058568 79.0333601,65.7483017" id="Path-4-Copy-12" stroke="#4A00D8" fill-rule="nonzero"></path>
                <path d="M112.434217,90.3780603 C107.680981,81.9136271 97.1456594,70.2058568 79.0333601,65.7483017" id="Path-4-Copy-24" stroke="#4A00D8" fill-rule="nonzero"></path>
                <path d="M64.5028319,60.6892881 C70.2788028,63.3763668 79.0966526,66.0250189 90.9566461,68.6353239 C103.278717,71.5527236 113.367262,74.4700796 121.222582,77.3874793 C127.491696,79.7157755 133.049506,83.119798 137.896114,87.5996171" id="Path-Copy-31" stroke="#4A00D8" fill-rule="nonzero"></path>
                <path d="M40.4760018,35.3321932 C48.4611842,20.9308574 68.2774089,13.0409032 91.618461,15.1779583 C98.0753437,15.7691362 104.325814,16.7580503 110.369871,18.1447006" id="Path" stroke="#FC00CD"></path>
                <path d="M118.782352,20.3752612 C125.101763,22.5236987 130.794362,24.5691618 136.650418,27.2967879" id="Path" stroke="#FC00CD"></path>
                <path d="M84.6028209,151.69949 C89.5268951,134.996427 108.198176,125.636342 131.934085,124.995937" id="Path" stroke="#00A5FF" transform="translate(108.268453, 138.347714) rotate(-180.000000) translate(-108.268453, -138.347714) "></path>
                <path d="M124.304212,137.731501 C125.744209,132.846856 128.359883,128.590191 131.934085,124.995937" id="Path-Copy-34" stroke="#543EFF" transform="translate(128.119149, 131.363719) rotate(-180.000000) translate(-128.119149, -131.363719) "></path>
                <path d="M35.802471,141.311766 C50.0752635,142.002714 63.3156734,145.731753 75.6336529,151.288622" id="Path" stroke="#00A5FF" transform="translate(55.718062, 146.300194) rotate(-180.000000) translate(-55.718062, -146.300194) "></path>
            </g>
            <path d="M213.491785,167.184017 C185.193956,147.262382 159.432099,141.528662 124.888722,141.528662" id="Path-50-Copy-2" stroke="#00A5FF" stroke-width="6"></path>
            <line x1="117.087943" y1="141.528662" x2="80.6405367" y2="141.528662" id="Line-3-Copy-84" stroke="#543EFF" stroke-width="6"></line>
            <line x1="543.286254" y1="141.528662" x2="503.400413" y2="141.528662" id="Line-3-Copy-85" stroke="#FFA1EE" stroke-width="6" transform="translate(523.082877, 141.528662) scale(-1, 1) translate(-523.082877, -141.528662) "></line>
            <line x1="71.8138792" y1="141.528662" x2="22.1887231" y2="141.528662" id="Line-3-Copy-86" stroke="#00A5FF" stroke-width="6"></line>
            <line x1="605.626485" y1="141.528662" x2="551.807654" y2="141.528662" id="Line-3-Copy-87" stroke="#7B00B8" stroke-width="6" transform="translate(578.759347, 141.528662) scale(-1, 1) translate(-578.759347, -141.528662) "></line>
            <line x1="95.5862166" y1="127.515924" x2="22.1887231" y2="127.515924" id="Line-3-Copy-88" stroke="#00A5FF" stroke-width="6"></line>
            <line x1="605.585265" y1="127.515924" x2="526.595582" y2="127.515924" id="Line-3-Copy-89" stroke="#FC00CD" stroke-width="6" transform="translate(566.153354, 127.515924) scale(-1, 1) translate(-566.153354, -127.515924) "></line>
            <line x1="136.169281" y1="113.503185" x2="56.0898996" y2="113.503185" id="Line-3-Copy-90" stroke="#00A5FF" stroke-width="6"></line>
            <line x1="568.604519" y1="113.503185" x2="488.066229" y2="113.503185" id="Line-3-Copy-91" stroke="#FC00CD" stroke-width="6" transform="translate(528.335374, 113.503185) scale(-1, 1) translate(-528.335374, -113.503185) "></line>
            <line x1="136.169281" y1="71.4649682" x2="56.0898996" y2="71.4649682" id="Line-3-Copy-92" stroke="#00AAFF" stroke-width="6"></line>
            <line x1="568.429692" y1="71.4649682" x2="482.779571" y2="71.4649682" id="Line-3-Copy-93" stroke="#FC00CD" stroke-width="6" transform="translate(525.534042, 71.464968) scale(-1, 1) translate(-525.534042, -71.464968) "></line>
            <line x1="48.1071981" y1="113.503185" x2="22.0057748" y2="113.503185" id="Line-3-Copy-94" stroke="#543EFF" stroke-width="6"></line>
            <line x1="605.489355" y1="113.503185" x2="577.327293" y2="113.503185" id="Line-3-Copy-95" stroke="#7B00B8" stroke-width="6" transform="translate(591.365341, 113.503185) scale(-1, 1) translate(-591.365341, -113.503185) "></line>
            <line x1="48.1071981" y1="71.4649682" x2="22.0057748" y2="71.4649682" id="Line-3-Copy-96" stroke="#00A5FF" stroke-width="6"></line>
            <line x1="605.489355" y1="71.4649682" x2="577.327293" y2="71.4649682" id="Line-3-Copy-97" stroke="#FC00CD" stroke-width="6" transform="translate(591.365341, 71.464968) scale(-1, 1) translate(-591.365341, -71.464968) "></line>
            <line x1="48.1071981" y1="155.541401" x2="22.0057748" y2="155.541401" id="Line-3-Copy-98" stroke="#A7E0FF" stroke-width="6"></line>
            <line x1="605.489355" y1="155.541401" x2="577.327293" y2="155.541401" id="Line-3-Copy-99" stroke="#FFA1EE" stroke-width="6" transform="translate(591.365341, 155.541401) scale(-1, 1) translate(-591.365341, -155.541401) "></line>
            <line x1="83.2879868" y1="99.4904459" x2="22.0057748" y2="99.4904459" id="Line-3-Copy-100" stroke="#A7E0FF" stroke-width="6"></line>
            <line x1="605.702231" y1="99.4904459" x2="547.909544" y2="99.4904459" id="Line-3-Copy-101" stroke="#FC00CD" stroke-width="6" transform="translate(576.658348, 99.490446) scale(-1, 1) translate(-576.658348, -99.490446) "></line>
            <path d="M538.839875,71.4649682 C488.779063,97.2769641 443.588437,99.4904459 412.44345,99.4904459 C391.680125,99.4904459 369.448772,99.4904459 345.749391,99.4904459" id="Line-3-Copy-102" stroke="#FC00CD" stroke-width="6" transform="translate(442.294633, 85.477707) scale(-1, 1) translate(-442.294633, -85.477707) "></path>
            <ellipse id="Oval" fill="#00AAFF" cx="14.0066593" cy="12.611465" rx="3.50166482" ry="3.50318471"></ellipse>
            <ellipse id="Oval-Copy-22" fill="#FC00CD" cx="479.027747" cy="12.611465" rx="3.50166482" ry="3.50318471"></ellipse>
            <ellipse id="Oval-Copy-20" fill="#00AAFF" cx="25.2119867" cy="12.611465" rx="3.50166482" ry="3.50318471"></ellipse>
            <ellipse id="Oval-Copy-23" fill="#FC00CD" cx="490.233074" cy="12.611465" rx="3.50166482" ry="3.50318471"></ellipse>
            <ellipse id="Oval-Copy-21" fill="#00AAFF" cx="36.4173141" cy="12.611465" rx="3.50166482" ry="3.50318471"></ellipse>
            <ellipse id="Oval-Copy-24" fill="#FC00CD" cx="501.438402" cy="12.611465" rx="3.50166482" ry="3.50318471"></ellipse>
            <line x1="83.2879868" y1="169.55414" x2="22.0057748" y2="169.55414" id="Line-3-Copy-105" stroke="#543EFF" stroke-width="6"></line>
            <line x1="605.66701" y1="169.55414" x2="540.206465" y2="169.55414" id="Line-3-Copy-106" stroke="#FC00CD" stroke-width="6" transform="translate(572.806517, 169.554140) scale(-1, 1) translate(-572.806517, -169.554140) "></line>
            <line x1="83.2879868" y1="57.4522293" x2="22.0057748" y2="57.4522293" id="Line-3-Copy-107" stroke="#543EFF" stroke-width="6"></line>
            <line x1="605.66701" y1="57.4522293" x2="540.206465" y2="57.4522293" id="Line-3-Copy-108" stroke="#7B00B8" stroke-width="6" transform="translate(572.806517, 57.452229) scale(-1, 1) translate(-572.806517, -57.452229) "></line>
            <line x1="83.2879868" y1="197.579618" x2="22.0057748" y2="197.579618" id="Line-3-Copy-109" stroke="#A7E0FF" stroke-width="6"></line>
            <line x1="605.66701" y1="197.579618" x2="540.206465" y2="197.579618" id="Line-3-Copy-110" stroke="#FFA1EE" stroke-width="6" transform="translate(572.806517, 197.579618) scale(-1, 1) translate(-572.806517, -197.579618) "></line>
            <line x1="35.9464359" y1="85.477707" x2="22.0057748" y2="85.477707" id="Line-3-Copy-111" stroke="#00A5FF" stroke-width="6"></line>
            <line x1="605.228865" y1="85.477707" x2="590.624363" y2="85.477707" id="Line-3-Copy-112" stroke="#FFA1EE" stroke-width="6" transform="translate(598.018504, 85.477707) scale(-1, 1) translate(-598.018504, -85.477707) "></line>
            <line x1="35.9464359" y1="43.4394904" x2="22.0057748" y2="43.4394904" id="Line-3-Copy-113" stroke="#00A5FF" stroke-width="6"></line>
            <line x1="605.228865" y1="43.4394904" x2="590.624363" y2="43.4394904" id="Line-3-Copy-114" stroke="#FC00CD" stroke-width="6" transform="translate(598.018504, 43.439490) scale(-1, 1) translate(-598.018504, -43.439490) "></line>
            <line x1="35.9464359" y1="183.566879" x2="22.0057748" y2="183.566879" id="Line-3-Copy-115" stroke="#00A5FF" stroke-width="6"></line>
            <line x1="605.228865" y1="183.566879" x2="590.624363" y2="183.566879" id="Line-3-Copy-116" stroke="#FC00CD" stroke-width="6" transform="translate(598.018504, 183.566879) scale(-1, 1) translate(-598.018504, -183.566879) "></line>
            <line x1="96.1295902" y1="85.477707" x2="42.16172" y2="85.477707" id="Line-3-Copy-117" stroke="#543EFF" stroke-width="6"></line>
            <line x1="584.321633" y1="85.477707" x2="526.202389" y2="85.477707" id="Line-3-Copy-118" stroke="#7B00B8" stroke-width="6" transform="translate(555.298193, 85.477707) scale(-1, 1) translate(-555.298193, -85.477707) "></line>
            <line x1="517.089669" y1="85.477707" x2="458.970424" y2="85.477707" id="Line-3-Copy-119" stroke="#FC00CD" stroke-width="6" transform="translate(488.066229, 85.477707) scale(-1, 1) translate(-488.066229, -85.477707) "></line>
            <line x1="96.1295902" y1="43.4394904" x2="42.16172" y2="43.4394904" id="Line-3-Copy-120" stroke="#A7E0FF" stroke-width="6"></line>
            <line x1="165.278579" y1="23.8216561" x2="2.06740137" y2="23.8216561" id="Line-3-Copy-126" stroke="#00A5FF" stroke-width="6"></line>
            <line x1="630.299667" y1="23.8216561" x2="467.088489" y2="23.8216561" id="Line-3-Copy-127" stroke="#FC00CD" stroke-width="6"></line>
            <line x1="584.321633" y1="43.4394904" x2="526.202389" y2="43.4394904" id="Line-3-Copy-121" stroke="#FFA1EE" stroke-width="6" transform="translate(555.298193, 43.439490) scale(-1, 1) translate(-555.298193, -43.439490) "></line>
            <line x1="96.1295902" y1="183.566879" x2="42.16172" y2="183.566879" id="Line-3-Copy-122" stroke="#00A5FF" stroke-width="6"></line>
            <line x1="584.321633" y1="183.566879" x2="526.202389" y2="183.566879" id="Line-3-Copy-123" stroke="#7B00B8" stroke-width="6" transform="translate(555.298193, 183.566879) scale(-1, 1) translate(-555.298193, -183.566879) "></line>
            <line x1="95.5862166" y1="155.541401" x2="56.2959301" y2="155.541401" id="Line-3-Copy-124" stroke="#00A5FF" stroke-width="6"></line>
            <line x1="568.253741" y1="155.541401" x2="526.895545" y2="155.541401" id="Line-3-Copy-125" stroke="#7B00B8" stroke-width="6" transform="translate(547.594530, 155.541401) scale(-1, 1) translate(-547.594530, -155.541401) "></line>
            <path d="M248.222697,170.009828 C198.661677,141.501056 188.475364,129.332338 133.592274,127.515924 C126.370745,127.276919 111.832413,127.515924 103.044352,127.515924" id="Path-51-Copy-4" stroke="#00A5FF" stroke-width="6"></path>
            <path d="M241.011082,148.709764 C230.539564,142.010027 221.715254,136.162298 213.491785,131.650383 C184.070782,115.50816 167.223122,113.503185 143.402407,113.503185" id="Path-51-Copy-5" stroke="#00A5FF" stroke-width="6"></path>
            <path d="M450.129095,85.477707 C420.220638,85.477707 379.266205,71.4649682 360.89204,61.7983548 M471.525498,71.4649682 C458.800134,71.4649682 439.062604,70.3613281 422.166045,66.6283651 C401.368562,62.0335695 383.36297,55.2989135 372.806591,49.7452229" id="Shape-Copy-40" stroke="#FC00CD" stroke-width="6"></path>
            <path d="M165.278579,160.412866 L165.278579,213 C165.278579,216.865993 162.144573,220 158.278579,220 L6.99999988,220 C3.1340067,220 1.59250603e-14,216.865993 0,213 L0,6.99999988 C-1.36162604e-15,3.1340067 3.1340067,7.10171427e-16 6.99999988,0 L158.278579,0 C162.144573,-7.10171427e-16 165.278579,3.1340067 165.278579,6.99999988 L165.278579,100.556261 L165.278579,100.556261" id="Path-Copy-39" stroke="#00A5FF" stroke-width="6"></path>
            <path d="M465.021088,56.9021198 L465.021088,7.00636943 C465.021088,3.13685844 468.156585,0 472.024417,0 L623.296337,0 C627.16417,0 630.299667,3.13685844 630.299667,7.00636943 L630.299667,212.993631 C630.299667,216.863142 627.16417,220 623.296337,220 L623.296337,220 L472.024417,220 C468.156585,220 465.021088,216.863142 465.021088,212.993631 L465.021088,113.622238" id="Path" stroke="#FC00CD" stroke-width="6"></path>
        </g>
    </g>
</svg>