<?xml version="1.0" encoding="UTF-8"?>
<svg width="56px" height="56px" viewBox="0 0 56 56" version="1.1" xmlns="http://www.w3.org/2000/svg" xmlns:xlink="http://www.w3.org/1999/xlink">
    <!-- Generator: Sketch 60 (88103) - https://sketch.com -->
    <title>01</title>
    <desc>Created with Sketch.</desc>
    <g id="01" stroke="none" stroke-width="1" fill="none" fill-rule="evenodd">
        <g id="feature/icon_1">
            <g id="icon-2" transform="translate(0.933333, 12.133333)">
                <g id="icon">
                    <line x1="19.1333333" y1="19.9447983" x2="26.1333333" y2="23.2144374" id="Path-3" stroke="#A7E0FF" stroke-width="1.4"></line>
                    <line x1="29.7490885" y1="22.4" x2="34.7151693" y2="16.6751592" id="Path-4" stroke="#A7E0FF" stroke-width="1.4"></line>
                    <line x1="38.2666667" y1="15.4" x2="50.4" y2="21.2333333" id="Path-5" stroke="#A7E0FF" stroke-width="1.4"></line>
                    <line x1="18.2514974" y1="16.8" x2="22.6333333" y2="5.55838641" id="Path-6" stroke="#A7E0FF" stroke-width="1.4"></line>
                    <line x1="36.1666667" y1="12.6" x2="32.8826823" y2="5.55838641" id="Path-7" stroke="#A7E0FF" stroke-width="1.4"></line>
                    <line x1="30.3333333" y1="25.8580729" x2="36.1666667" y2="31.7333333" id="Path-8" stroke="#A7E0FF" stroke-width="1.4"></line>
                    <line x1="4.2" y1="15.6333333" x2="14.9333333" y2="18.4333333" id="Path-2" stroke="#A7E0FF" stroke-width="1.4"></line>
                    <ellipse id="Oval" fill="#00AAFF" cx="11.2015538" cy="2.94267516" rx="1" ry="1"></ellipse>
                    <ellipse id="Oval-Copy-20" fill="#00AAFF" cx="13.8161302" cy="2.94267516" rx="1" ry="1"></ellipse>
                    <ellipse id="Oval-Copy-21" fill="#00AAFF" cx="16.4307066" cy="2.94267516" rx="1" ry="1"></ellipse>
                    <path d="M44.8650019,31.7333333 L9.56666664,31.7333333 C8.66460156,31.7333333 7.93333333,31.0020651 7.93333333,30.1 L7.93333333,1.63333331 C7.93333333,0.731268229 8.66460156,-2.78382544e-16 9.56666664,0 L44.8650019,0 C45.767067,-1.65706666e-16 46.4983352,0.731268229 46.4983352,1.63333331 L46.4983352,30.1 C46.4983352,31.0020651 45.767067,31.7333333 44.8650019,31.7333333 Z" id="Path-Copy-39" stroke="#00A5FF" stroke-width="1.4"></path>
                    <line x1="46.4983352" y1="5.55838641" x2="8.41572699" y2="5.55838641" id="Line-3-Copy-126" stroke="#00A5FF" stroke-width="1.4"></line>
                    <circle id="Oval" stroke="#FC00CD" stroke-width="1.4" cx="17.0333333" cy="18.9" r="2.1"></circle>
                    <circle id="Oval-Copy" stroke="#4A00D8" stroke-width="1.4" cx="28.2333333" cy="24.5" r="2.1"></circle>
                    <circle id="Oval-Copy-2" stroke="#7B00B8" stroke-width="1.4" cx="36.1666667" cy="14.7" r="2.1"></circle>
                    <circle id="Oval-Copy-3" stroke="#A7E0FF" stroke-width="1.4" cx="52.0333333" cy="21.7" r="2.1"></circle>
                    <circle id="Oval-Copy-4" stroke="#543EFF" stroke-width="1.4" cx="2.1" cy="15.1666667" r="2.1"></circle>
                </g>
            </g>
        </g>
    </g>
</svg>