<?xml version="1.0" encoding="UTF-8"?>
<svg width="54px" height="62px" viewBox="0 0 54 62" version="1.1" xmlns="http://www.w3.org/2000/svg" xmlns:xlink="http://www.w3.org/1999/xlink">
    <!-- Generator: Sketch 60 (88103) - https://sketch.com -->
    <title>icon-navbar</title>
    <desc>Created with Sketch.</desc>
    <g id="Skeumorph" stroke="none" stroke-width="1" fill="none" fill-rule="evenodd">
        <g id="Skeumorph-Copy" transform="translate(1.000000, 2.000000)">
            <path d="M26.9610323,35.2397595 C32.0207341,30.3487428 30.6679453,25.4077002 28.9398476,21.5268274 C26.8911884,16.9260539 22.7924824,14.4555824 17.6009743,12.7118191" id="Path-4-Copy-13" stroke="#7B00B8" stroke-width="2.39999971" fill-rule="nonzero" transform="translate(24.051164, 23.975789) rotate(-180.000000) translate(-24.051164, -23.975789) "></path>
            <path d="M9.84707427,42.0132405 C12.8939491,44.0052476 15.8005137,45.1279303 18.2467503,45.9191102 C21.5447127,46.9857615 24.8426257,47.5190792 28.1405881,47.5190792 C31.8109011,47.5190792 34.5237005,46.9724286 36.2790676,45.879111 C36.4143854,45.7948293 36.5444874,45.7084084 36.6693736,45.6198484" id="Path" stroke="#00A5FF" stroke-width="2.39999971" fill-rule="nonzero"></path>
            <path d="M36.9009027,45.4486077 C38.2417102,44.4137773 38.9121051,43.103983 38.9121051,41.5191955 C38.9121051,40.1858813 38.3934817,39.0792471 37.3562193,38.1992598 C36.3189569,37.3192724 34.9891533,36.6126265 33.3667686,36.0793009 C31.7443838,35.5459752 29.5502079,34.9593258 26.7841749,34.319335 C22.5287395,33.3060162 19.044654,32.2927126 16.3318139,31.2793939 C13.6189739,30.2660751 11.2918176,28.6394562 9.35027516,26.3994884" id="Path" stroke="#4A00D8" stroke-width="2.39999971" fill-rule="nonzero"></path>
            <path d="M46.1728527,41.1800263 C42.8181252,39.6839479 33.2183156,34.4025566 34.4403165,25.0658501" id="Path" stroke="#543EFF" stroke-width="2.39999971" fill-rule="nonzero" transform="translate(40.253190, 33.122938) rotate(-180.000000) translate(-40.253190, -33.122938) "></path>
            <path d="M24.0984926,33.0085699 C20.4961311,31.4020564 9.1364411,25.9607153 13.2470559,13.9245621" id="Path" stroke="#7B00B8" stroke-width="2.15999974"></path>
            <path d="M13.3631277,22.3407364 C12.600959,21.0754275 12.2327713,19.6851194 12.404841,18.161178" id="Shape" stroke="#4A00D8" stroke-width="2.15999974"></path>
            <path d="M26.9562802,34.247269 C23.2829655,33.0085699 21.156599,31.7970163 19.2840075,30.4265251 C17.8417435,29.3709771 16.1486218,27.9616266 14.9280063,26.3512349" id="Path-Copy-32" stroke="#4A00D8" stroke-width="2.15999974"></path>
            <path d="M28.1405881,47.8906696 C30.4125844,47.8906696 32.3176754,47.5573383 33.8558804,46.8906696" id="Shape" stroke="#543EFF" stroke-width="2.39999971" fill-rule="nonzero"></path>
            <path d="M7.93549342,24.3190192 C6.93714497,22.4098361 6.43797612,20.1167281 6.43797612,17.4396621 C6.43797612,14.1863755 7.31564651,11.2397954 9.0710136,8.59983336 C10.8263807,5.95987131 13.4726899,3.86659947 17.0100206,2.31995504 C19.9608301,1.02975814 23.4575749,0.277704642 27.5003303,0.0637810978" id="Path" stroke="#FC00CD" stroke-width="2.39999971" fill-rule="nonzero"></path>
            <path d="M7.32373185,12.0884383 C7.75133606,10.8714787 8.33376266,9.70861254 9.0710136,8.59983336 C9.47540166,7.99165907 9.92707329,7.41249842 10.4260294,6.86235063" id="Path-Copy-36" stroke="#7B00B8" stroke-width="2.39999971" fill-rule="nonzero"></path>
            <path d="M7.93549342,24.3190192 C6.93714497,22.4098361 6.43797612,20.1167281 6.43797612,17.4396621" id="Path-Copy-35" stroke="#7B00B8" stroke-width="2.39999971" fill-rule="nonzero"></path>
            <path d="M29.9757354,0 C33.5396626,0 37.2624552,0.467791728 40.6668035,1.32111279 C44.0711518,2.17443386 49.1910854,4.1918417 51.7581364,5.66802305" id="Path" stroke="#FC00CD" stroke-width="2.39999971" fill-rule="nonzero"></path>
            <path d="M41.37656,12.7118191 C38.9930371,11.63994 35.2992944,10.8069194 32.1532989,10.5137623" id="Path" stroke="#FC00CD" stroke-width="2.39999971" fill-rule="nonzero"></path>
            <path d="M29.8959464,10.3997985 C26.2788263,10.3997985 23.6059211,10.9864479 21.8771505,12.1597644 C20.1483798,13.3330808 19.2840075,14.8797021 19.2840075,16.7996745 C19.2840075,18.7196469 20.2813602,20.1462716 22.2760955,21.0795915 C24.2708309,22.0129114 27.3160811,22.9328844 31.4119377,23.839538 C35.6673731,24.8528568 39.1514586,25.8661604 41.8642986,26.8794791 C44.0293414,27.6881809 45.9487346,28.8705214 47.6225138,30.4265251" id="Path" stroke="#7B00B8" stroke-width="2.39999971" fill-rule="nonzero"></path>
            <path d="M48.8458374,31.6793861 C50.7873798,33.8660214 51.7581364,36.8259344 51.7581364,40.5592141 C51.7581364,43.759168 50.867168,46.6790823 49.0852045,49.3190443 C47.3032409,51.9590064 44.6303356,54.0522782 41.0664085,55.5989226" id="Path" stroke="#00A5FF" stroke-width="2.39999971" fill-rule="nonzero"></path>
            <path d="M48.8458374,31.6793861 C50.7873798,33.8660214 51.7581364,36.8259344 51.7581364,40.5592141" id="Path-Copy-33" stroke="#543EFF" stroke-width="2.39999971" fill-rule="nonzero"></path>
            <path d="M39.1978276,56.3153605 C36.0186011,57.3845028 32.3062832,57.9193237 28.0607991,57.9193237 C24.3667536,57.9193237 21.4206978,57.7529967 17.6021892,56.7832542" id="Path" stroke="#00A5FF" stroke-width="2.39999971" fill-rule="nonzero"></path>
            <path d="M15.2546622,56.1189125 C10.2101011,54.5560883 5.19503966,51.8703722 0,48.0995328" id="Path" stroke="#00A5FF" stroke-width="2.39999971" fill-rule="nonzero"></path>
            <path d="M36.6073743,45.6577674 C43.3327009,41.3290376 40.4707643,34.3315839 38.829231,31.3915792 C37.1876976,28.4515745 33.5493175,24.3850411 27.294223,22.8367705" id="Path-4-Copy-12" stroke="#4A00D8" stroke-width="2.39999971" fill-rule="nonzero"></path>
            <path d="M38.829231,31.3915792 C37.1876976,28.4515745 33.5493175,24.3850411 27.294223,22.8367705" id="Path-4-Copy-24" stroke="#4A00D8" stroke-width="2.39999971" fill-rule="nonzero"></path>
            <path d="M22.2760955,21.0795915 C24.2708309,22.0129114 27.3160811,22.9328844 31.4119377,23.839538 C35.6673731,24.8528568 39.1514586,25.8661604 41.8642986,26.8794791 C44.0293414,27.6881809 45.9487346,28.8705214 47.6225138,30.4265251" id="Path-Copy-31" stroke="#4A00D8" stroke-width="2.39999971" fill-rule="nonzero"></path>
            <path d="M13.9784139,12.2721525 C16.7361019,7.27004615 23.5796482,4.52957881 31.6404959,5.27185556 C33.8703846,5.47719309 36.0289885,5.82067884 38.1163076,6.30231281" id="Path" stroke="#FC00CD" stroke-width="2.15999974"></path>
            <path d="M41.0215637,7.07706743 C43.2039763,7.82329772 45.1699192,8.53376124 47.1923119,9.48116475" id="Path" stroke="#FC00CD" stroke-width="2.15999974"></path>
            <path d="M29.21764,52.6907366 C30.9181723,46.8891565 37.3663115,43.6380597 45.5635234,43.4156238" id="Path" stroke="#00A5FF" stroke-width="2.15999974" transform="translate(37.390582, 48.053180) rotate(-180.000000) translate(-37.390582, -48.053180) "></path>
            <path d="M42.9285417,47.8391471 C43.4258455,46.1425326 44.3291703,44.6640384 45.5635234,43.4156238" id="Path-Copy-34" stroke="#543EFF" stroke-width="2.15999974" transform="translate(44.246033, 45.627385) rotate(-180.000000) translate(-44.246033, -45.627385) "></path>
            <path d="M12.364407,49.082703 C17.2935253,49.3226942 21.8661095,50.617925 26.1201319,52.548027" id="Path" stroke="#00A5FF" stroke-width="2.15999974" transform="translate(19.242269, 50.815365) rotate(-180.000000) translate(-19.242269, -50.815365) "></path>
        </g>
    </g>
</svg>
