<?xml version="1.0" encoding="UTF-8"?>
<svg width="617px" height="111px" viewBox="0 0 617 111" version="1.1" xmlns="http://www.w3.org/2000/svg" xmlns:xlink="http://www.w3.org/1999/xlink">
    <!-- Generator: Sketch 60 (88103) - https://sketch.com -->
    <title>wave_2</title>
    <desc>Created with Sketch.</desc>
    <g id="Skeumorph" stroke="none" stroke-width="1" fill="none" fill-rule="evenodd">
        <g id="Divider-Copy" transform="translate(-2.000000, 55.000000)"></g>
        <g id="wave_2" transform="translate(1.000000, 3.000000)" stroke-width="6">
            <path d="M-7.10542736e-14,8.53626292 C47.3903137,1.22167247 94.8741221,1.69348309 141.850326,6.61099346" id="Path" stroke="#A7E0FF"></path>
            <path d="M152.43431,7.79379366 C201.987917,13.6761663 250.924323,24.2419248 298.534358,35.549745" id="Path" stroke="#46BEFF"></path>
            <path d="M305.287784,37.160454 C341.189839,45.7568111 376.314418,54.6707203 410.354974,62.1984946" id="Path" stroke="#543EFF"></path>
            <path d="M419.189349,64.1251901 C429.121106,66.2595415 438.957254,68.2618436 448.690052,70.0890651" id="Path" stroke="#FFA1EE"></path>
            <path d="M456.886809,71.589956 C495.099428,78.4046187 531.665467,82.2984782 566.107727,80.6194338" id="Path" stroke="#4A00D8"></path>
            <path d="M572.513804,80.2405309 C587.006328,79.2300026 601.111608,77.1876583 614.793256,73.9112629" id="Path" stroke="#FC00CD"></path>
            <path d="M104.95092,15.2932642 C133.359994,16.7182103 161.642052,20.0697387 189.666032,24.6194435" id="Path" stroke="#46BEFF"></path>
            <path d="M198.702717,26.128741 C205.640154,27.3192015 212.560842,28.578567 219.462782,29.8957192" id="Path" stroke="#FFA1EE"></path>
            <path d="M226.60259,31.279755 C268.169948,39.4602704 309.029525,49.6050863 348.741801,59.2715012" id="Path" stroke="#7B00B8"></path>
            <path d="M356.582797,61.1768205 C399.612723,71.6111744 441.250898,81.2889143 480.931665,87.0663156" id="Path" stroke="#46BEFF"></path>
            <path d="M488.472757,88.1196897 C533.45366,94.1304807 575.84042,94.8053967 614.793256,85.4772152" id="Path" stroke="#46BEFF"></path>
            <path d="M245.625134,47.4056279 C259.511497,50.3361237 273.310415,53.4460954 287.005232,56.6429654" id="Path" stroke="#46BEFF"></path>
            <path d="M293.691606,58.2122834 C338.862583,68.8688857 382.865606,80.3107049 425.098392,89.1904725" id="Path" stroke="#A7E0FF"></path>
            <path d="M431.386708,90.4959917 C467.413644,97.8775006 502.119487,103.256639 535.125599,104.52908" id="Path" stroke="#543EFF"></path>
            <path d="M179.337936,1.86517468e-14 C206.521132,4.10832753 233.47763,9.42282724 260.088594,15.2830558" id="Path" stroke="#543EFF"></path>
            <path d="M266.790703,16.7717847 C348.753132,35.1302461 427.32791,58.1598893 499.019658,66.4345914" id="Path" stroke="#46BEFF"></path>
            <path d="M507.491923,67.3458001 C545.432762,71.1202673 581.376605,70.4796257 614.793256,62.4772152" id="Path" stroke="#543EFF"></path>
            <path d="M453.687441,47.5792793 C484.655544,53.2187895 514.556067,56.9974624 543.136832,57.5137762" id="Path" stroke="#46BEFF"></path>
            <path d="M550.573607,57.5735167 C572.849361,57.524384 594.296692,55.3856041 614.793256,50.4772152" id="Path" stroke="#7B00B8"></path>
            <path d="M541.320547,104.719626 C566.922089,105.304103 591.473058,103.304789 614.793256,97.7202139" id="Path" stroke="#4A00D8"></path>
        </g>
    </g>
</svg>