<?xml version="1.0" encoding="UTF-8"?>
<svg width="56px" height="56px" viewBox="0 0 56 56" version="1.1" xmlns="http://www.w3.org/2000/svg" xmlns:xlink="http://www.w3.org/1999/xlink">
    <!-- Generator: Sketch 60 (88103) - https://sketch.com -->
    <title>03</title>
    <desc>Created with Sketch.</desc>
    <g id="03" stroke="none" stroke-width="1" fill="none" fill-rule="evenodd">
        <g id="feature/icon_3">
            <g id="icon-copy-2" transform="translate(1.400000, 12.133333)">
                <line x1="39.7061655" y1="26.4840764" x2="21.0209766" y2="26.4840764" id="Line-3-Copy-90" stroke="#00A5FF" stroke-width="1.4"></line>
                <line x1="39.7061655" y1="16.6751592" x2="21.0209766" y2="16.6751592" id="Line-3-Copy-92" stroke="#00AAFF" stroke-width="1.4"></line>
                <line x1="19.1583462" y1="26.4840764" x2="13.0680141" y2="26.4840764" id="Line-3-Copy-94" stroke="#7B00B8" stroke-width="1.4"></line>
                <line x1="19.1583462" y1="16.6751592" x2="13.0680141" y2="16.6751592" id="Line-3-Copy-96" stroke="#00A5FF" stroke-width="1.4"></line>
                <line x1="27.3671969" y1="23.2144374" x2="13.0680141" y2="23.2144374" id="Line-3-Copy-100" stroke="#A7E0FF" stroke-width="1.4"></line>
                <line x1="10.6863932" y1="23.2144374" x2="0.495111994" y2="23.2144374" id="Line-3-Copy-136" stroke="#A7E0FF" stroke-width="1.4"></line>
                <line x1="48.846875" y1="26.2968153" x2="41.5645796" y2="26.2968153" id="Line-3-Copy-137" stroke="#FFA1EE" stroke-width="1.4"></line>
                <ellipse id="Oval" fill="#00AAFF" cx="11.2015538" cy="2.94267516" rx="1" ry="1"></ellipse>
                <ellipse id="Oval-Copy-20" fill="#00AAFF" cx="13.8161302" cy="2.94267516" rx="1" ry="1"></ellipse>
                <ellipse id="Oval-Copy-21" fill="#00AAFF" cx="16.4307066" cy="2.94267516" rx="1" ry="1"></ellipse>
                <line x1="27.3671969" y1="13.4055202" x2="13.0680141" y2="13.4055202" id="Line-3-Copy-107" stroke="#543EFF" stroke-width="1.4"></line>
                <line x1="16.320835" y1="19.9447983" x2="13.0680141" y2="19.9447983" id="Line-3-Copy-111" stroke="#00A5FF" stroke-width="1.4"></line>
                <line x1="16.320835" y1="10.1358811" x2="13.0680141" y2="10.1358811" id="Line-3-Copy-113" stroke="#00A5FF" stroke-width="1.4"></line>
                <line x1="30.363571" y1="19.9447983" x2="17.771068" y2="19.9447983" id="Line-3-Copy-117" stroke="#FC00CD" stroke-width="1.4"></line>
                <line x1="30.363571" y1="10.1358811" x2="17.771068" y2="10.1358811" id="Line-3-Copy-120" stroke="#A7E0FF" stroke-width="1.4"></line>
                <line x1="39.7061655" y1="10.1358811" x2="36.1555013" y2="10.1358811" id="Line-3-Copy-138" stroke="#FC00CD" stroke-width="1.4"></line>
                <line x1="46.4983352" y1="5.55838641" x2="8.41572699" y2="5.55838641" id="Line-3-Copy-126" stroke="#00A5FF" stroke-width="1.4"></line>
                <path d="M44.8650019,31.7333333 L9.56666664,31.7333333 C8.66460156,31.7333333 7.93333333,31.0020651 7.93333333,30.1 L7.93333333,1.63333331 C7.93333333,0.731268229 8.66460156,-2.78382544e-16 9.56666664,0 L44.8650019,0 C45.767067,-1.65706666e-16 46.4983352,0.731268229 46.4983352,1.63333331 L46.4983352,30.1 C46.4983352,31.0020651 45.767067,31.7333333 44.8650019,31.7333333 Z" id="Path-Copy-39" stroke="#00A5FF" stroke-width="1.4"></path>
                <line x1="10.3844987" y1="13.4055202" x2="4.69511199" y2="13.4055202" id="Line-3-Copy-134" stroke="#FC00CD" stroke-width="1.4"></line>
                <line x1="52.9666667" y1="16.4968153" x2="41.880299" y2="16.4968153" id="Line-3-Copy-135" stroke="#543EFF" stroke-width="1.4"></line>
            </g>
        </g>
    </g>
</svg>