<?xml version="1.0" encoding="UTF-8"?>
<svg width="56px" height="56px" viewBox="0 0 56 56" version="1.1" xmlns="http://www.w3.org/2000/svg" xmlns:xlink="http://www.w3.org/1999/xlink">
    <!-- Generator: Sketch 60 (88103) - https://sketch.com -->
    <title>02</title>
    <desc>Created with Sketch.</desc>
    <g id="02" stroke="none" stroke-width="1" fill="none" fill-rule="evenodd">
        <g id="feature/icon_2">
            <g id="icon-copy" transform="translate(7.933333, 11.200000)">
                <line x1="11.0718684" y1="16.5027601" x2="3.74863651" y2="16.5027601" id="Line-3-Copy-96" stroke="#00A5FF" stroke-width="1.4041791"></line>
                <ellipse id="Oval" fill="#00AAFF" cx="3.2682205" cy="2.94267516" rx="1" ry="1"></ellipse>
                <ellipse id="Oval-Copy-20" fill="#00AAFF" cx="5.88279689" cy="2.94267516" rx="1" ry="1"></ellipse>
                <ellipse id="Oval-Copy-21" fill="#00AAFF" cx="8.49737329" cy="2.94267516" rx="1" ry="1"></ellipse>
                <line x1="13.0001541" y1="13.233121" x2="3.74617063" y2="13.233121" id="Line-3-Copy-107" stroke="#543EFF" stroke-width="1.4041791"></line>
                <line x1="7.73126911" y1="19.7723992" x2="3.75011677" y2="19.7723992" id="Line-3-Copy-111" stroke="#00A5FF" stroke-width="1.4041791"></line>
                <line x1="7.73126911" y1="9.96348195" x2="3.75011677" y2="9.96348195" id="Line-3-Copy-113" stroke="#00A5FF" stroke-width="1.4041791"></line>
                <line x1="13.0666667" y1="19.7723992" x2="9.83773467" y2="19.7723992" id="Line-3-Copy-117" stroke="#543EFF" stroke-width="1.4041791"></line>
                <line x1="14.2205729" y1="9.96348195" x2="9.83773467" y2="9.96348195" id="Line-3-Copy-120" stroke="#A7E0FF" stroke-width="1.4041791"></line>
                <line x1="27.0666667" y1="5.55838641" x2="0.482393654" y2="5.55838641" id="Line-3-Copy-126" stroke="#00A5FF" stroke-width="1.4041791"></line>
                <path d="M13.135026,24.2666667 L1.63333331,24.2666667 C0.731268229,24.2666667 0,23.5353984 0,22.6333334 L0,1.63333331 C0,0.731268229 0.731268229,0 1.63333331,0 L25.4333334,0 C26.3353984,0 27.0666667,0.731268229 27.0666667,1.63333331 L27.0666667,9.86425781" id="Shape" stroke="#00A5FF" stroke-width="1.4041791"></path>
                <line x1="35.4969044" y1="26.3027601" x2="26.1543099" y2="26.3027601" id="Line-3-Copy-104" stroke="#4A00D8" stroke-width="1.4041791"></line>
                <line x1="24.2916795" y1="26.3027601" x2="18.2013475" y2="26.3027601" id="Line-3-Copy-103" stroke="#7B00B8" stroke-width="1.4041791"></line>
                <ellipse id="Oval-Copy-5" fill="#FFA1EE" cx="16.3348872" cy="12.7426752" rx="1" ry="1"></ellipse>
                <ellipse id="Oval-Copy-26" fill="#FFA1EE" cx="18.9494636" cy="12.7426752" rx="1" ry="1"></ellipse>
                <ellipse id="Oval-Copy-25" fill="#FFA1EE" cx="21.56404" cy="12.7426752" rx="1" ry="1"></ellipse>
                <line x1="32.5005302" y1="23.033121" x2="18.2013475" y2="23.033121" id="Line-3-Copy-133" stroke="#FC00CD" stroke-width="1.4041791"></line>
                <line x1="21.4541684" y1="29.5723992" x2="18.2013475" y2="29.5723992" id="Line-3-Copy-132" stroke="#FC00CD" stroke-width="1.4041791"></line>
                <line x1="21.4541684" y1="19.763482" x2="18.2013475" y2="19.763482" id="Line-3-Copy-131" stroke="#4A00D8" stroke-width="1.4041791"></line>
                <line x1="35.4969044" y1="29.5723992" x2="22.9044013" y2="29.5723992" id="Line-3-Copy-130" stroke="#46BEFF" stroke-width="1.4041791"></line>
                <line x1="35.4969044" y1="19.763482" x2="22.9044013" y2="19.763482" id="Line-3-Copy-129" stroke="#FFA1EE" stroke-width="1.4041791"></line>
                <line x1="40.1333333" y1="15.3583864" x2="13.5490603" y2="15.3583864" id="Line-3-Copy-128" stroke="#4A00D8" stroke-width="1.4041791"></line>
                <path d="M38.4951244,34.0666667 L14.7048756,34.0666667 C13.8001178,34.0666667 13.0666667,33.3332155 13.0666667,32.4284577 L13.0666667,11.4382089 C13.0666667,10.5334511 13.8001178,9.8 14.7048756,9.8 L38.4951244,9.8 C39.3998822,9.8 40.1333333,10.5334511 40.1333333,11.4382089 L40.1333333,32.4284577 C40.1333333,33.3332155 39.3998822,34.0666667 38.4951244,34.0666667 Z" id="Path-Copy-40" stroke="#4A00D8" stroke-width="1.4041791"></path>
                <g id="Group-2" transform="translate(4.200000, 27.066667)" stroke="#A7E0FF" stroke-width="1.4041791">
                    <path d="M0,0 C0,1.74817708 1.92970354,4.41259766 5.58569494,4.41259766" id="Path-9"></path>
                    <polyline id="Path-10" points="4.37175293 2.65946452 5.58569494 4.41259766 3.98592122 5.86876628"></polyline>
                </g>
                <g id="Group-2-Copy" transform="translate(33.408929, 4.475595) rotate(-180.000000) translate(-33.408929, -4.475595) translate(30.417857, 1.484524)" stroke="#A7E0FF" stroke-width="1.4041791">
                    <path d="M0,0 C0,1.74817708 1.92970354,4.41259766 5.58569494,4.41259766" id="Path-9"></path>
                    <polyline id="Path-10" points="4.37175293 2.65946452 5.58569494 4.41259766 3.98592122 5.86876628"></polyline>
                </g>
            </g>
        </g>
    </g>
</svg>