<?xml version="1.0" encoding="UTF-8"?>
<svg width="524px" height="97px" viewBox="0 0 524 97" version="1.1" xmlns="http://www.w3.org/2000/svg" xmlns:xlink="http://www.w3.org/1999/xlink">
    <!-- Generator: Sketch 60 (88103) - https://sketch.com -->
    <title>wave_1</title>
    <desc>Created with Sketch.</desc>
    <g id="Skeumorph" stroke="none" stroke-width="1" fill="none" fill-rule="evenodd">
        <g id="left" transform="translate(2.000000, 3.000000)" stroke-width="6">
            <path d="M0,78.6267848 C59,46.3442383 118.874298,32.7716553 182,35.2995505" id="Path" stroke="#4A00D8"></path>
            <path d="M189,35.6277767 C224.846017,37.6997438 261.392969,44.8617489 298.503013,56.535953 C330.121027,66.4824553 362.620023,72.3503437 396,74.1396182" id="Path" stroke="#543EFF"></path>
            <path d="M403,74.3885607 C437.332932,76.157515 476.666265,72.267522 521,62.7185817" id="Path" stroke="#46BEFF"></path>
            <path d="M0,66.2753906 C23.5166968,53.7406122 46.5052665,44.3515064 69,37.6015218" id="Path" stroke="#FC00CD"></path>
            <path d="M75,36.0486785 C149.931379,14.9492064 219.395521,22.6760067 284.663709,40.5185547 C310.302854,47.5275999 330.717834,52.4571215 348,55.8734446" id="Path" stroke="#46BEFF"></path>
            <path d="M355,57.1886124 C391.76916,63.9220971 414.33303,63.4886572 446,62.203125" id="Path" stroke="#543EFF"></path>
            <path d="M0,91 C15.8582133,80.1335462 67.0158028,56.6207054 124,49" id="Path" stroke="#543EFF"></path>
            <path d="M130,48.6364352 C139.40099,47.5877965 148.927891,47 158.450727,47 C188.56092,47 217.405774,49.7905915 244.98529,55.3717745" id="Path" stroke="#543EFF"></path>
            <path d="M251.796983,56.8126583 C264.469228,59.6102452 276.870233,63.0060258 289,67" id="Path" stroke="#A7E0FF"></path>
            <path d="M0,38 C23.8957909,28.3680507 52.1378256,16.9150961 84,9" id="Path" stroke="#543EFF"></path>
            <path d="M90,8 C111.185702,3.17219506 133.921765,0 158,0" id="Path" stroke="#FFA1EE"></path>
            <path d="M0,52 C46.7997518,31.5445366 86.1330852,19.2112033 118,15" id="Path" stroke="#4A00D8"></path>
            <path d="M127,14 C155.728442,11.636798 180.924084,11.1468203 207,13.7349652" id="Path" stroke="#A7E0FF"></path>
        </g>
    </g>
</svg>